<?xml version="1.0" encoding="iso-8859-1"?>
<!-- Generator: Adobe Illustrator 19.0.0, SVG Export Plug-In . SVG Version: 6.00 Build 0)  -->
<svg version="1.1" id="Capa_1" xmlns="http://www.w3.org/2000/svg" xmlns:xlink="http://www.w3.org/1999/xlink" x="0px" y="0px"
	 viewBox="0 0 511.997 511.997" style="enable-background:new 0 0 511.997 511.997;" xml:space="preserve">
<g>
	<g>
		<path d="M480.343,254.632l-0.477-0.48c-3.899-3.911-10.231-3.923-14.142-0.023c-3.912,3.899-3.922,10.23-0.023,14.143l0.407,0.409
			c1.957,1.982,4.536,2.976,7.118,2.976c2.537,0,5.075-0.96,7.023-2.882C484.18,264.895,484.222,258.564,480.343,254.632z"/>
	</g>
</g>
<g>
	<g>
		<path d="M501.179,284.164c-2.394-4.976-8.367-7.07-13.346-4.677c-4.977,2.394-7.071,8.369-4.677,13.346
			c16.499,34.304,9.489,75.445-17.443,102.377c-16.952,16.952-39.49,26.288-63.463,26.288c-23.974,0-46.512-9.336-63.464-26.288
			c-34.994-34.994-34.994-91.933,0-126.927c5.763-5.764,12.135-10.618,18.929-14.53l35.352,81.955
			c1.631,3.78,5.316,6.042,9.187,6.042c1.322,0,2.665-0.264,3.956-0.82c5.071-2.188,7.409-8.072,5.221-13.144l-35.374-82.006
			c20.057-6.149,42.065-5.121,62.325,3.781c5.057,2.224,10.956-0.077,13.177-5.133c2.222-5.057-0.077-10.956-5.133-13.178
			c-20.016-8.794-42.013-11.396-63.613-7.529c-5.005,0.896-9.901,2.146-14.675,3.701l-50.436-116.924h56.286
			c5.365,0,10.171,3.198,12.242,8.143l0.244,0.583c1.746,4.169,1.311,8.718-1.193,12.48c-2.503,3.763-6.532,5.921-11.051,5.921
			c-5.523,0-10,4.478-10,10c0,5.522,4.477,10,10,10c11.163,0,21.519-5.548,27.702-14.842c6.184-9.293,7.301-20.988,2.991-31.28
			l-0.244-0.584c-5.195-12.405-17.242-20.421-30.691-20.421h-71.49c-3.366,0-6.505,1.693-8.355,4.505
			c-1.849,2.812-2.16,6.365-0.827,9.456l18.626,43.18h-26.148h-52.667H188l-7.615-17.141H210.5c5.523,0,10-4.478,10-10
			c0-27.57-22.43-50-50-50h-31c-16.542,0-30,13.458-30,30s13.458,30,30,30h19l10.884,24.499l-10.869,24.334H70.251
			C47.505,179.331,29,197.836,29,220.582v36.846c-18.729,20.313-29,46.538-29,74.319c0,37.05,18.457,69.868,46.657,89.751H10
			c-5.523,0-10,4.478-10,10c0,5.522,4.477,10,10,10h99.751c43.192,0,82.521-25.474,100.194-64.897
			c2.259-5.04,0.005-10.957-5.034-13.216c-5.042-2.262-10.957-0.005-13.216,5.034c-14.455,32.244-46.62,53.079-81.944,53.079
			C60.262,421.498,20,381.236,20,331.747c0-13.815,3.123-27.153,9-39.228v10.729c0,21.229,17.271,38.499,38.499,38.499h183.259
			l12.545,25.751h-6.682c-5.523,0-10,4.478-10,10c0,5.522,4.477,10,10,10h22.677c3.447,0,6.652-1.775,8.479-4.699
			c1.828-2.923,2.021-6.581,0.511-9.681l-20.351-41.776l59.193-148.491l22.64,52.487c-9.15,4.988-17.608,11.284-25.128,18.803
			c-42.792,42.792-42.792,112.42,0,155.212c4.494,4.494,9.31,8.548,14.394,12.146h-65.91c-5.523,0-10,4.478-10,10
			c0,5.522,4.477,10,10,10h129.122c29.315,0,56.876-11.416,77.605-32.146C512.786,376.422,521.355,326.112,501.179,284.164z
			 M243.126,167.638h32.667v11.692h-32.667V167.638z M139.5,110.498c-5.514,0-10-4.486-10-10c0-5.514,4.486-10,10-10h31
			c13.038,0,24.159,8.359,28.287,20H139.5z M180.347,179.673c-0.025-0.003-0.051-0.007-0.076-0.01l0.036-0.081L180.347,179.673z
			 M49,229.903v-9.321c0-11.718,9.533-21.251,21.251-21.251h104.875c11.718,0,21.251,9.533,21.251,21.251v9.321v2.306
			c0,6.877-5.595,12.472-12.472,12.472h-21.819c-0.661-4.882-4.834-8.649-9.898-8.649c-5.064,0-9.237,3.767-9.898,8.649h-39.204
			c-0.661-4.882-4.834-8.649-9.898-8.649c-5.064,0-9.237,3.767-9.898,8.649H61.472c-6.877,0-12.472-5.595-12.472-12.472V229.903z
			 M196.378,303.248c0,10.2-8.298,18.499-18.499,18.499h-1.252H67.499c-10.2,0-18.499-8.299-18.499-18.499v-41.062
			c3.842,1.604,8.055,2.494,12.472,2.494h21.725c0.087,5.448,4.523,9.84,9.992,9.84s9.905-4.392,9.992-9.84h39.016
			c0.087,5.448,4.523,9.84,9.992,9.84c5.469,0,9.905-4.392,9.992-9.84h21.725c4.417,0,8.629-0.89,12.472-2.494V303.248z
			 M211.63,321.747c3.023-5.494,4.747-11.798,4.747-18.499v-41.134l25.485,59.633H211.63z M256.689,305.547l-37.991-88.896
			c-0.129-0.303-0.274-0.594-0.428-0.877l-21.385-48.136h26.242v21.692c0,5.522,4.477,10,10,10h52.667c5.523,0,10-4.478,10-10
			v-21.692h15.87L256.689,305.547z"/>
	</g>
</g>
<g>
	<g>
		<path d="M233.867,424.428c-1.87-1.861-4.44-2.93-7.07-2.93c-2.64,0-5.21,1.069-7.07,2.93c-1.87,1.86-2.93,4.44-2.93,7.07
			s1.06,5.21,2.93,7.069c1.86,1.86,4.44,2.931,7.07,2.931s5.2-1.07,7.07-2.931c1.86-1.859,2.93-4.439,2.93-7.069
			S235.727,426.288,233.867,424.428z"/>
	</g>
</g>
<g>
</g>
<g>
</g>
<g>
</g>
<g>
</g>
<g>
</g>
<g>
</g>
<g>
</g>
<g>
</g>
<g>
</g>
<g>
</g>
<g>
</g>
<g>
</g>
<g>
</g>
<g>
</g>
<g>
</g>
</svg>
